<svg width="11" height="14" viewBox="0 0 11 14" fill="none" xmlns="http://www.w3.org/2000/svg">
<path d="M5.15533 0C2.31317 0 1.21875e-06 2.22533 0 4.95848C-1.78125e-06 9.76763 4.86511 13.4236 4.86511 13.4236C5.03602 13.5545 5.27831 13.5545 5.44922 13.4236C5.44922 13.4236 10.3153 9.76763 10.3152 4.95848C10.3152 2.22533 7.9975 0 5.15533 0ZM5.15533 2.7055C6.4442 2.7055 7.50183 3.71905 7.50183 4.95848C7.50184 6.19792 6.44421 7.21409 5.15533 7.21409C3.86646 7.21409 2.81249 6.19792 2.8125 4.95848C2.8125 3.71905 3.86647 2.7055 5.15533 2.7055Z" fill="white"/>
</svg>
