<svg width="15" height="16" viewBox="0 0 15 16" fill="none" xmlns="http://www.w3.org/2000/svg">
<path fill-rule="evenodd" clip-rule="evenodd" d="M14.7303 13.2405C14.2673 14.5856 12.4533 15.2564 11.1573 15.1446C9.38729 14.9916 7.4613 14.0941 5.9993 13.1056C3.8503 11.6525 1.8373 9.4048 0.664295 7.01961C-0.164705 5.33421 -0.350702 3.26201 0.882298 1.72574C1.3383 1.15788 1.8313 0.854605 2.5723 0.819233C3.6003 0.771434 3.7443 1.33365 4.0973 2.20934C4.3603 2.86419 4.7113 3.53218 4.9073 4.21093C5.2743 5.47762 3.9913 5.53056 3.8293 6.56589C3.7283 7.21883 4.5563 8.09445 4.9303 8.56002C5.6633 9.47203 6.5443 10.2586 7.5383 10.8571C8.1073 11.2003 9.02629 11.8187 9.6783 11.4775C10.6823 10.9517 10.5873 9.33326 11.9913 9.88104C12.7183 10.164 13.4223 10.5724 14.1163 10.9299C15.1893 11.4815 15.1393 12.0532 14.7303 13.2405C15.0363 12.3534 14.4243 14.1277 14.7303 13.2405Z" fill="white"/>
</svg>
